<svg xmlns="http://www.w3.org/2000/svg" viewBox="0 0 1200 630" width="1200" height="630">
  <rect width="1200" height="630" fill="#EFE8DA"/>
  <g opacity="0.45">
    <path d="M0 480 Q 200 380 420 460 T 900 420 T 1200 380" stroke="#A39A82" stroke-width="1.2" fill="none"/>
    <path d="M0 540 Q 240 460 480 520 T 920 480 T 1200 440" stroke="#A39A82" stroke-width="1.2" fill="none"/>
    <path d="M0 600 Q 240 540 520 580 T 980 540 T 1200 500" stroke="#A39A82" stroke-width="1.2" fill="none"/>
  </g>
  <g transform="translate(80,90)">
    <rect x="0" y="0" width="40" height="40" fill="none" stroke="#1B1F1C" stroke-width="1.4"/>
    <path d="M5 30 L11 21 L17 25 L24 15 L30 19 L37 12" stroke="#5E7263" stroke-width="2" fill="none"/>
    <circle cx="24" cy="15" r="3.4" fill="#C8794D" stroke="#1B1F1C" stroke-width="1"/>
  </g>
  <text x="140" y="125" font-family="Fraunces, serif" font-size="36" font-weight="600" fill="#1B1F1C">Skyline Watch</text>
  <text x="140" y="160" font-family="IBM Plex Mono, monospace" font-size="16" fill="#4B5050" letter-spacing="2">MARKET-WATCH TERMINAL · SALE + RENT</text>
  <text x="80" y="290" font-family="Fraunces, serif" font-size="84" font-weight="500" fill="#1B1F1C">The listing was on the market</text>
  <text x="80" y="380" font-family="Fraunces, serif" font-size="84" font-weight="500" font-style="italic" fill="#9C5A36">for forty-seven seconds</text>
  <text x="80" y="470" font-family="Fraunces, serif" font-size="84" font-weight="500" fill="#1B1F1C">when we paged you.</text>
  <text x="80" y="540" font-family="Inter, sans-serif" font-size="22" fill="#4B5050">Real-time scoring of sale + rent listings · 24 cities · 60 by Q4</text>
  <text x="80" y="572" font-family="IBM Plex Mono, monospace" font-size="16" fill="#4B5050" letter-spacing="1.5">REAL-ESTATE-MONITOR.PRIN7R.COM</text>
  <rect x="980" y="80" width="140" height="32" fill="#C8794D"/>
  <text x="993" y="103" font-family="IBM Plex Mono, monospace" font-size="14" fill="#EFE8DA" letter-spacing="2">MATCHED 47s</text>
</svg>
